<?xml version="1.0" standalone="no"?>
<!DOCTYPE svg PUBLIC "-//W3C//DTD SVG 20010904//EN"
 "http://www.w3.org/TR/2001/REC-SVG-20010904/DTD/svg10.dtd">
<svg version="1.0" xmlns="http://www.w3.org/2000/svg"
 width="3369.000000pt" height="1772.000000pt" viewBox="0 0 3369.000000 1772.000000"
 preserveAspectRatio="xMidYMid meet">

<g transform="translate(0.000000,1772.000000) scale(0.100000,-0.100000)"
fill="#000000" stroke="none">
<path d="M7440 14738 c-56 -16 -73 -36 -67 -84 l4 -42 -38 -6 c-51 -8 -79 -37
-79 -81 0 -38 6 -41 44 -23 22 9 29 8 46 -7 11 -10 36 -18 55 -19 29 -1 38 -7
53 -36 24 -46 75 -73 126 -66 25 3 35 1 29 -5 -13 -13 -69 -16 -103 -7 -25 7
-26 6 -22 -26 2 -18 -5 -66 -17 -106 -24 -87 -19 -101 43 -125 51 -20 94 -15
144 15 l32 20 -6 97 c-5 88 -3 105 20 172 42 119 29 214 -34 246 -22 11 -26
19 -22 44 4 26 0 32 -23 41 -33 12 -138 12 -185 -2z m149 -112 c17 -20 2 -46
-25 -46 -26 0 -40 20 -30 45 7 19 40 20 55 1z"/>
<path d="M6661 14405 c-296 -83 -484 -399 -535 -897 -6 -54 -5 -58 14 -58 36
0 77 28 94 65 10 19 26 87 37 151 49 292 175 516 338 602 104 55 197 50 257
-13 36 -38 48 -79 69 -225 8 -58 23 -128 31 -157 21 -67 72 -126 128 -149 43
-18 44 -20 51 -74 9 -67 31 -126 52 -134 27 -11 61 22 80 73 9 27 20 48 24 46
3 -3 9 -26 13 -52 7 -54 38 -113 60 -113 22 0 51 43 71 107 l19 58 7 -41 c9
-51 34 -112 56 -136 24 -27 58 -22 87 12 24 29 56 113 56 149 0 9 11 -15 25
-53 29 -82 48 -105 73 -90 26 16 52 75 59 135 l6 52 21 -58 c13 -35 32 -66 48
-78 26 -20 28 -20 47 -3 22 20 41 87 41 144 0 37 2 39 41 51 97 29 144 119
174 332 8 59 22 125 31 148 49 124 192 143 334 44 145 -102 252 -312 296 -583
16 -98 40 -166 66 -187 8 -7 30 -16 48 -20 l33 -6 -7 83 c-33 399 -199 722
-433 839 -52 26 -154 51 -209 51 -64 0 -141 -28 -184 -66 -49 -45 -73 -108
-99 -259 -24 -144 -36 -165 -96 -165 -54 0 -96 33 -154 123 -39 59 -40 59 -35
25 10 -59 -19 -106 -84 -136 -46 -21 -70 -25 -146 -25 -106 0 -162 19 -202 66
-21 25 -25 39 -22 79 1 26 2 48 2 48 -1 0 -16 -22 -34 -49 -17 -27 -51 -68
-75 -90 -37 -34 -52 -41 -84 -41 -28 0 -46 6 -60 21 -22 24 -24 31 -45 169
-26 166 -60 231 -140 270 -60 28 -172 35 -245 15z"/>
<path d="M6675 14221 c-110 -51 -202 -177 -262 -362 -40 -121 -73 -277 -73
-347 0 -34 1 -34 33 -28 77 15 109 66 137 222 35 199 95 328 197 428 35 34 63
68 63 74 0 11 -31 32 -47 32 -4 0 -26 -9 -48 -19z"/>
<path d="M8388 14229 c-30 -17 -21 -36 45 -102 107 -104 152 -210 206 -487 19
-93 60 -142 129 -156 39 -8 39 -9 12 151 -25 149 -82 320 -131 396 -88 136
-210 228 -261 198z"/>
<path d="M6760 14092 c-49 -52 -114 -179 -144 -286 -24 -81 -60 -305 -51 -314
10 -10 71 13 92 36 28 30 30 15 3 -37 -22 -44 -64 -81 -90 -81 -22 0 -30 -37
-30 -144 0 -76 13 -221 26 -293 7 -37 26 -42 63 -17 43 31 54 76 51 224 -4
186 -4 192 2 305 6 95 28 222 64 357 16 64 42 122 88 200 22 38 25 51 16 67
-16 32 -49 25 -90 -17z"/>
<path d="M8292 14118 c-19 -19 -15 -38 27 -107 45 -76 72 -155 102 -296 28
-136 30 -155 32 -435 3 -272 6 -287 66 -327 27 -18 37 -21 42 -11 18 35 41
311 32 396 -6 62 -6 62 -48 81 -33 15 -47 29 -68 72 -31 62 -36 99 -7 51 19
-31 54 -52 87 -52 14 0 15 11 9 78 -16 180 -70 351 -149 469 -54 81 -97 109
-125 81z"/>
<path d="M5185 14060 c-197 -41 -326 -167 -355 -348 -38 -231 151 -411 390
-373 35 6 66 9 68 6 8 -7 -76 -143 -177 -285 -235 -334 -300 -501 -288 -744 8
-183 56 -334 153 -481 82 -125 114 -151 220 -179 152 -41 256 -96 347 -185 47
-45 97 -125 97 -156 0 -24 16 -18 49 21 111 125 152 289 107 422 -23 68 -100
153 -171 188 l-55 26 34 42 c294 362 436 1008 321 1460 -48 190 -103 294 -220
412 -60 61 -98 90 -155 118 -118 57 -254 78 -365 56z m198 -105 c211 -44 377
-238 450 -523 20 -78 22 -111 22 -322 -1 -206 -4 -248 -23 -340 -62 -284 -200
-580 -369 -787 -24 -29 -43 -55 -43 -57 0 -2 15 -8 33 -11 99 -22 205 -97 238
-170 29 -63 23 -203 -11 -255 -8 -13 -12 -11 -26 10 -56 83 -176 167 -294 206
-49 16 -52 18 -30 25 71 20 171 1 241 -47 28 -19 53 -34 54 -34 12 0 -22 64
-51 98 -52 61 -129 95 -229 100 l-82 4 78 152 c321 624 445 1133 359 1471 -17
68 -69 200 -75 193 -2 -2 4 -41 12 -88 22 -128 19 -370 -6 -510 -51 -288 -174
-612 -370 -967 -107 -195 -103 -194 -97 -28 9 242 50 407 156 630 115 242 201
482 186 518 -3 7 -5 6 -5 -4 -2 -27 -76 -172 -153 -294 -229 -366 -289 -535
-307 -860 l-7 -130 -31 65 c-48 102 -64 173 -70 315 -5 113 -2 143 16 215 31
125 102 261 257 490 187 279 244 405 244 535 0 54 -26 120 -56 146 -57 49
-146 44 -199 -11 -27 -28 -30 -38 -30 -96 0 -63 2 -67 37 -100 21 -19 47 -34
57 -34 11 0 22 -4 25 -9 8 -12 -45 -21 -128 -21 -93 0 -147 31 -190 109 -26
49 -28 59 -24 135 9 153 91 247 248 282 74 16 112 16 193 -1z"/>
<path d="M9720 14055 c-114 -26 -205 -78 -295 -169 -92 -94 -135 -161 -181
-284 -110 -296 -103 -708 21 -1088 47 -145 149 -349 229 -456 l65 -87 -44 -20
c-24 -10 -65 -39 -90 -62 -144 -133 -143 -352 4 -536 42 -54 61 -65 61 -38 0
28 41 97 87 146 81 87 203 153 358 194 87 23 92 26 149 87 152 164 234 402
223 648 -10 217 -65 348 -278 656 -129 187 -195 292 -187 299 2 2 35 0 73 -6
114 -16 211 10 284 77 143 129 142 354 -2 511 -105 114 -304 167 -477 128z
m266 -111 c80 -25 137 -74 173 -145 27 -53 31 -73 31 -139 0 -98 -25 -151 -94
-197 -43 -30 -55 -33 -121 -33 -40 0 -86 3 -104 6 -33 7 -33 24 1 24 11 0 38
18 60 40 40 39 40 41 36 100 -3 49 -9 65 -33 90 -71 74 -192 52 -236 -43 -36
-80 -18 -198 51 -342 21 -44 100 -172 176 -285 217 -324 275 -465 276 -670 0
-124 -25 -245 -74 -347 l-32 -68 -7 136 c-17 330 -74 483 -344 917 -31 51 -73
127 -92 170 -28 65 -33 71 -27 37 12 -78 83 -272 157 -430 91 -194 130 -304
158 -438 23 -114 39 -399 21 -382 -18 17 -130 224 -202 370 -121 248 -202 475
-251 695 -29 133 -37 427 -15 560 8 52 14 96 12 98 -2 2 -18 -31 -36 -74 -103
-249 -88 -537 50 -954 71 -215 136 -370 256 -607 l91 -183 -61 0 c-126 0 -228
-53 -278 -145 -15 -27 -25 -51 -23 -53 2 -2 19 7 37 21 68 52 185 79 253 59
30 -9 30 -9 -25 -27 -116 -38 -206 -97 -268 -175 -29 -37 -42 -47 -49 -37 -37
46 -44 186 -14 252 33 73 139 148 239 170 17 3 32 9 32 12 0 3 -17 26 -39 52
-117 140 -252 390 -315 582 -57 175 -78 300 -83 505 -6 197 8 323 48 444 77
237 246 411 434 449 63 13 167 6 231 -15z"/>
<path d="M6816 13848 c-16 -44 -46 -202 -46 -244 0 -32 30 -31 69 2 73 61 84
272 14 282 -17 3 -24 -6 -37 -40z"/>
<path d="M8251 13871 c-15 -26 -14 -144 1 -193 6 -21 21 -50 34 -63 22 -24 70
-43 80 -32 8 8 -34 245 -49 276 -15 33 -52 40 -66 12z"/>
<path d="M6995 13626 c-24 -17 -34 -78 -35 -201 0 -104 24 -363 35 -374 10 -9
60 35 78 70 17 31 18 52 12 243 -7 220 -14 258 -54 269 -11 3 -27 0 -36 -7z"/>
<path d="M6880 13595 c-13 -39 -72 -95 -100 -95 -19 0 -20 -8 -20 -222 0 -125
5 -230 10 -238 8 -13 14 -12 47 5 20 11 46 36 58 55 19 33 20 51 20 282 0 137
-1 248 -2 248 -1 0 -7 -16 -13 -35z"/>
<path d="M8073 13603 c-14 -21 -19 -60 -24 -212 -8 -198 -7 -215 19 -274 15
-37 66 -76 76 -58 3 4 11 82 17 172 11 166 6 348 -12 381 -15 27 -55 23 -76
-9z"/>
<path d="M8243 13390 c-1 -133 2 -248 8 -266 12 -38 55 -80 90 -89 25 -6 26
-4 33 41 3 26 6 132 6 235 0 183 -1 189 -20 189 -34 0 -72 32 -94 80 l-21 45
-2 -235z"/>
<path d="M6457 13500 c-18 -51 -66 -100 -98 -100 -18 0 -19 -8 -18 -152 0
-153 11 -314 22 -324 11 -11 67 28 84 59 15 27 19 70 23 297 3 146 5 266 5
267 0 1 -8 -20 -18 -47z"/>
<path d="M7262 13479 c-16 -33 -35 -58 -58 -71 -31 -18 -34 -24 -29 -54 3 -19
7 -49 10 -67 3 -19 16 -44 29 -56 37 -35 62 -21 83 45 l17 55 12 -46 c13 -53
43 -98 68 -103 24 -5 53 24 67 65 l11 35 18 -51 c9 -28 25 -60 35 -71 39 -43
90 -12 116 68 16 51 25 58 33 25 11 -43 34 -73 57 -73 30 0 66 45 80 101 l13
50 15 -52 c20 -64 39 -79 74 -56 29 19 47 70 47 132 0 34 -4 42 -28 53 -29 13
-71 76 -73 108 0 11 -6 -2 -13 -28 -33 -121 -102 -144 -152 -50 l-23 43 -11
-42 c-20 -74 -82 -110 -139 -79 -20 10 -51 78 -51 113 -1 18 -4 15 -16 -13
-52 -119 -139 -103 -162 31 l-7 39 -23 -51z"/>
<path d="M8667 13285 c3 -137 9 -264 14 -281 11 -35 43 -68 75 -78 19 -6 22
-1 28 46 3 29 9 137 13 239 l6 186 -32 6 c-39 8 -84 53 -98 99 -7 24 -9 -37
-6 -217z"/>
<path d="M8874 13250 c0 -178 -6 -292 -17 -377 -28 -204 -20 -281 35 -340 42
-45 52 -29 84 136 28 148 44 328 44 508 0 159 -2 183 -15 183 -38 0 -74 32
-102 87 l-28 58 -1 -255z"/>
<path d="M6241 13461 c-14 -48 -63 -100 -102 -108 -39 -7 -43 -39 -36 -238 9
-219 66 -578 97 -609 5 -5 23 5 43 25 40 40 63 123 54 198 -3 25 -13 107 -22
181 -10 85 -17 220 -17 363 -1 125 -2 227 -3 227 -1 0 -7 -18 -14 -39z"/>
<path d="M7282 13190 c-39 -61 -65 -163 -60 -235 2 -36 9 -70 16 -77 22 -22
65 3 90 52 16 32 22 38 22 22 0 -42 31 -102 56 -108 29 -7 49 8 73 54 l18 35
7 -43 c8 -52 21 -76 45 -90 30 -16 67 21 81 80 l12 50 22 -43 c39 -73 93 -58
116 31 l12 47 12 -30 c17 -39 50 -68 73 -63 61 12 54 169 -14 301 l-27 52 -11
-57 c-15 -71 -38 -108 -68 -108 -34 0 -46 12 -66 66 l-19 49 -11 -42 c-13 -47
-52 -99 -82 -108 -43 -14 -107 66 -109 135 -1 19 -5 14 -20 -23 -25 -64 -38
-79 -68 -75 -35 4 -60 43 -70 108 l-8 55 -22 -35z"/>
<path d="M8007 12960 c-15 -91 -27 -182 -27 -202 0 -65 39 -138 74 -138 13 0
86 293 86 345 0 7 -13 18 -30 25 -35 14 -57 46 -68 97 -7 33 -12 16 -35 -127z"/>
<path d="M7096 13095 c-18 -53 -44 -91 -71 -105 -16 -8 -31 -15 -32 -15 -4 0
49 -247 63 -290 22 -66 26 -69 57 -45 17 14 29 37 37 73 10 46 8 74 -18 227
-18 109 -32 167 -36 155z"/>
<path d="M6901 13076 c-2 -47 -41 -104 -83 -124 -38 -17 -39 -18 -33 -59 10
-68 71 -298 108 -408 72 -210 174 -425 203 -425 16 0 27 35 26 80 -1 19 -22
103 -47 185 -62 206 -121 448 -140 580 -25 165 -32 205 -34 171z"/>
<path d="M8221 13060 c-2 -118 -65 -412 -147 -690 -64 -216 -67 -232 -58 -270
5 -21 15 -35 24 -35 36 0 161 276 233 515 34 113 91 350 85 354 -2 2 -17 8
-35 15 -43 17 -62 41 -84 103 l-18 53 0 -45z"/>
<path d="M8441 13043 c0 -6 -10 -63 -21 -127 -29 -170 -73 -339 -141 -536
-100 -289 -116 -377 -76 -417 13 -13 18 -10 45 29 66 97 159 307 222 503 31
100 90 328 90 352 0 8 -10 17 -22 22 -44 17 -76 68 -88 140 -4 25 -8 41 -9 34z"/>
<path d="M6686 13005 c-12 -61 -43 -113 -80 -132 l-33 -18 23 -105 c61 -273
216 -667 308 -785 16 -20 16 -20 31 -1 9 13 15 42 15 79 0 48 -16 106 -79 296
-86 255 -131 423 -159 596 -17 101 -19 107 -26 70z"/>
<path d="M8627 12896 c-36 -249 -60 -334 -242 -854 -37 -107 -55 -171 -51
-187 7 -27 32 -55 49 -55 14 0 108 167 160 285 99 222 185 502 215 698 8 50 7
57 -7 57 -43 0 -87 58 -99 132 -7 37 -9 29 -25 -76z"/>
<path d="M6487 12980 c-3 -8 -8 -28 -12 -44 -9 -44 -34 -74 -71 -88 -19 -6
-34 -16 -34 -21 0 -5 11 -64 25 -132 30 -149 88 -342 150 -494 57 -143 184
-391 203 -399 28 -10 44 28 38 94 -5 60 -25 123 -136 434 -60 168 -112 374
-139 545 -10 66 -21 113 -24 105z"/>
<path d="M4113 12899 c39 -155 29 -264 -38 -434 -51 -128 -80 -234 -90 -317
l-6 -58 -43 25 c-118 69 -296 104 -437 86 -128 -16 -136 -21 -144 -76 -16
-102 23 -271 88 -384 36 -63 153 -191 205 -223 32 -20 34 -23 17 -32 -10 -6
-47 -33 -82 -59 l-63 -48 -11 28 c-25 67 -91 102 -189 103 -88 0 -152 -25
-217 -84 -152 -138 -159 -371 -16 -514 120 -120 305 -151 503 -86 102 34 190
84 389 223 233 162 351 221 442 221 35 0 43 5 84 58 60 75 158 273 190 387 75
259 69 506 -16 739 -93 256 -294 436 -516 462 -55 7 -56 7 -50 -17z m201 -131
c137 -73 243 -224 292 -416 34 -132 43 -330 20 -459 -18 -104 -66 -260 -97
-313 l-20 -35 5 35 c3 19 8 130 12 245 10 318 -24 524 -116 703 -44 87 -85
149 -76 117 70 -267 88 -387 93 -637 5 -214 -11 -468 -27 -437 -21 39 -112
465 -141 659 -13 85 -13 85 -20 40 -25 -154 0 -476 57 -720 4 -19 -22 1 -103
81 -220 215 -388 325 -582 383 -30 9 -52 14 -50 12 2 -2 65 -44 139 -94 74
-49 178 -126 230 -170 98 -81 251 -237 271 -274 15 -28 -20 -8 -418 238 l-106
66 30 -38 c77 -97 253 -242 389 -322 35 -20 64 -40 64 -43 0 -3 -37 -9 -82
-12 -135 -9 -223 -44 -383 -148 -276 -180 -329 -191 -461 -97 l-59 42 41 -49
c56 -67 73 -81 117 -100 99 -41 209 -6 452 145 127 79 204 108 313 116 l77 6
-65 -39 c-36 -22 -136 -88 -223 -146 -87 -59 -196 -125 -242 -147 -239 -116
-450 -77 -528 99 -30 67 -21 183 19 248 31 50 91 97 135 107 l27 6 -19 -37
c-23 -45 -24 -63 -5 -108 22 -51 69 -77 133 -72 56 4 56 4 186 117 90 79 161
116 270 139 l81 17 -57 23 c-85 34 -197 113 -263 183 -97 104 -163 256 -164
374 0 38 2 42 31 48 54 11 162 6 228 -9 133 -32 269 -127 361 -253 24 -34 45
-60 47 -59 1 2 -5 25 -13 52 -9 29 -18 104 -21 176 -7 156 9 239 78 426 61
167 73 220 66 300 -4 42 -3 63 4 63 6 0 39 -15 73 -32z"/>
<path d="M10903 12905 c-79 -22 -120 -41 -187 -89 -150 -107 -257 -284 -308
-509 -27 -122 -30 -334 -5 -460 37 -187 128 -400 222 -519 42 -54 44 -55 104
-61 85 -7 212 -71 386 -193 284 -200 392 -254 546 -277 148 -21 289 22 385
118 152 151 127 420 -50 539 -69 46 -115 59 -200 54 -86 -4 -143 -35 -170 -92
l-16 -35 -64 47 c-34 26 -71 52 -81 57 -16 9 -13 14 24 38 62 41 152 137 194
209 68 115 112 303 93 402 -9 45 -23 51 -145 67 -142 18 -315 -17 -436 -87
l-41 -23 -16 104 c-12 76 -32 144 -73 246 -65 166 -80 249 -65 357 5 40 13 84
16 98 6 22 3 24 -27 23 -19 0 -57 -7 -86 -14z m-7 -197 c0 -82 4 -105 38 -198
100 -277 99 -273 103 -430 4 -121 1 -157 -15 -220 -11 -41 -19 -76 -18 -77 1
-1 26 30 56 69 96 126 221 212 352 243 66 15 173 19 227 9 29 -6 31 -9 31 -53
0 -208 -167 -431 -408 -544 l-67 -31 71 -16 c134 -31 190 -62 313 -175 40 -36
83 -70 97 -75 70 -27 154 3 180 65 19 46 18 74 -6 113 l-20 32 28 -6 c46 -10
105 -57 137 -109 26 -41 30 -60 33 -130 4 -72 1 -88 -22 -132 -82 -163 -289
-196 -520 -83 -65 32 -311 187 -502 318 -32 22 119 5 196 -22 37 -12 115 -53
174 -90 315 -198 433 -205 568 -33 l33 42 -59 -43 c-130 -93 -190 -81 -446 88
-69 46 -148 93 -176 106 -63 28 -186 54 -254 54 -27 0 -50 3 -50 8 0 4 27 22
60 41 130 74 341 250 402 334 18 25 11 23 -63 -24 -143 -90 -382 -235 -417
-253 -33 -17 -33 -17 -22 5 21 39 223 234 325 315 55 44 148 110 208 148 59
38 107 70 107 72 0 2 -24 -4 -52 -13 -191 -56 -351 -161 -571 -372 -66 -64
-117 -107 -113 -96 4 11 19 85 33 165 27 160 41 419 28 536 l-8 69 -33 -194
c-35 -199 -106 -518 -123 -548 -16 -29 -26 123 -26 382 0 286 15 400 91 690 6
26 -38 -43 -77 -117 -40 -78 -73 -183 -95 -303 -20 -108 -26 -412 -12 -590 l7
-90 -20 38 c-33 62 -76 206 -94 317 -22 129 -16 314 15 440 30 126 99 258 174
333 54 54 162 126 191 127 7 0 11 -35 11 -92z"/>
<path d="M7274 12786 c-36 -16 -67 -62 -94 -140 -19 -56 -19 -56 1 -56 27 0
60 18 81 44 17 21 18 20 18 -25 0 -87 58 -109 94 -35 17 34 20 36 29 20 18
-34 50 -64 69 -64 16 0 18 9 17 73 -1 90 -17 144 -50 169 -33 25 -124 33 -165
14z"/>
<path d="M7720 12783 c-51 -26 -70 -72 -70 -170 0 -74 2 -83 18 -83 22 0 47
25 59 58 9 23 10 22 34 -15 19 -30 30 -38 54 -38 30 0 30 1 33 59 l3 59 27
-26 c15 -15 43 -30 61 -33 33 -7 34 -7 27 22 -12 51 -60 138 -88 157 -38 28
-114 33 -158 10z"/>
<path d="M5973 12592 c-40 -59 -53 -93 -53 -140 0 -41 29 -95 59 -111 16 -9
24 -5 51 25 28 33 31 42 27 83 -5 51 -39 191 -47 191 -3 0 -19 -21 -37 -48z"/>
<path d="M8786 12523 c-15 -65 -55 -197 -87 -293 -56 -168 -84 -242 -163 -432
-30 -70 -34 -91 -26 -112 5 -14 16 -26 24 -26 22 0 150 198 216 334 62 129
160 382 160 414 0 10 -11 24 -23 29 -31 15 -54 65 -64 141 l-8 62 -29 -117z"/>
<path d="M9115 12614 c-4 -16 -16 -62 -27 -102 -22 -83 -16 -122 26 -161 23
-22 25 -22 49 -6 34 22 60 89 52 135 -8 41 -50 122 -76 146 -17 15 -18 15 -24
-12z"/>
<path d="M6310 12580 c0 -55 -24 -110 -61 -140 l-31 -26 47 -128 c80 -222 148
-364 242 -506 72 -110 88 -127 107 -111 24 20 19 58 -20 146 -108 245 -187
472 -240 688 -29 121 -44 147 -44 77z"/>
<path d="M7215 12519 c-24 -28 -85 -146 -85 -164 0 -3 12 -5 28 -5 28 0 67 21
90 48 10 13 12 7 12 -34 0 -92 49 -113 85 -37 11 23 22 42 25 43 3 0 11 -14
18 -30 12 -25 56 -60 77 -60 19 0 -8 167 -37 223 l-20 40 -30 -37 c-23 -29
-36 -36 -64 -36 -31 0 -37 4 -52 41 l-18 42 -29 -34z"/>
<path d="M7890 12523 c0 -31 -32 -53 -77 -53 -33 0 -46 6 -66 29 -23 28 -26
29 -40 13 -9 -10 -20 -37 -26 -62 -13 -55 -14 -170 -2 -170 15 0 81 79 82 98
0 9 7 -1 15 -22 29 -79 74 -100 93 -45 6 18 11 45 11 61 l0 30 31 -26 c34 -29
79 -35 79 -11 0 33 -42 123 -70 150 -27 26 -30 27 -30 8z"/>
<path d="M6095 12333 c-42 -22 -85 -64 -85 -82 0 -11 -7 -8 -23 11 -12 14 -47
38 -77 52 -62 29 -74 22 -64 -33 8 -50 30 -77 81 -102 101 -49 200 9 219 129
7 48 -1 52 -51 25z"/>
<path d="M8993 12304 c12 -109 119 -173 214 -127 46 21 73 67 73 121 l0 42
-60 -30 c-33 -17 -65 -39 -72 -49 -11 -18 -13 -17 -32 12 -18 27 -95 76 -120
77 -5 0 -6 -21 -3 -46z"/>
<path d="M7246 12210 c-3 -14 -10 -66 -17 -116 l-12 -92 -108 -43 c-87 -34
-113 -48 -129 -73 -17 -28 -18 -31 -3 -35 9 -2 22 4 28 13 10 13 83 46 103 46
3 0 -13 -16 -36 -36 -36 -30 -42 -41 -42 -75 0 -46 14 -50 34 -11 13 26 96
102 110 102 4 0 -4 -17 -17 -37 -28 -45 -44 -123 -25 -123 7 0 28 22 45 48 18
26 50 67 71 91 l38 44 51 -17 c27 -9 61 -28 73 -41 37 -39 49 -33 37 18 -8 39
-16 47 -78 86 -38 23 -69 46 -69 51 0 5 9 49 20 97 11 48 22 97 25 108 4 18
-1 20 -45 20 -45 0 -50 -2 -54 -25z"/>
<path d="M7838 12232 c-27 -2 -48 -6 -48 -10 0 -4 9 -45 20 -92 11 -47 22 -95
25 -106 4 -18 -7 -29 -64 -63 -50 -31 -71 -49 -76 -69 -3 -15 -8 -35 -11 -44
-8 -28 19 -22 50 11 15 16 48 35 73 42 l46 12 28 -34 c16 -19 48 -60 71 -91
23 -32 46 -58 50 -58 20 0 6 76 -23 124 -22 35 -26 46 -13 36 56 -43 91 -77
106 -102 26 -42 42 -36 35 13 -4 31 -14 48 -44 74 l-38 34 40 -10 c22 -6 50
-20 62 -32 30 -27 39 -17 19 21 -13 25 -34 37 -125 72 l-110 42 -5 42 c-3 22
-9 75 -13 116 l-8 75 -47 -3z"/>
<path d="M6109 12155 c-37 -24 -74 -54 -83 -66 -9 -13 -16 -18 -16 -11 0 16
-50 40 -101 48 -24 4 -52 11 -62 16 -26 13 -28 8 -16 -35 54 -197 359 -153
359 53 0 22 -3 40 -7 39 -5 0 -38 -20 -74 -44z"/>
<path d="M8947 12178 c-8 -31 8 -96 30 -127 11 -14 39 -36 64 -49 35 -19 56
-23 106 -20 75 5 108 25 141 88 39 77 35 81 -65 55 -48 -13 -92 -30 -99 -39
-10 -15 -13 -14 -27 8 -12 18 -129 106 -142 106 -2 0 -5 -10 -8 -22z"/>
<path d="M6228 12021 c-1 -5 -32 -26 -68 -48 -36 -22 -75 -54 -87 -73 -13 -18
-23 -28 -23 -22 0 17 -48 39 -112 51 -32 5 -71 17 -88 26 l-30 15 6 -32 c9
-49 36 -90 75 -116 31 -22 42 -23 124 -20 99 5 157 26 194 74 26 33 44 99 37
130 -6 24 -21 32 -28 15z"/>
<path d="M8886 12023 c-11 -11 -6 -73 8 -106 32 -76 113 -117 230 -117 92 0
133 20 164 80 12 24 22 55 22 67 0 22 -2 22 -22 9 -13 -7 -58 -21 -100 -30
-42 -10 -82 -24 -88 -32 -17 -20 -25 -18 -38 10 -6 14 -33 37 -59 52 -26 15
-62 38 -79 50 -17 13 -34 20 -38 17z"/>
<path d="M6300 11882 c-14 -13 -49 -45 -77 -72 -47 -44 -53 -53 -53 -90 l0
-41 -30 22 c-26 20 -43 22 -140 23 -60 1 -110 -2 -110 -7 0 -19 32 -66 64 -95
94 -83 306 -27 374 98 20 38 23 55 19 108 -3 35 -9 67 -13 71 -5 4 -20 -4 -34
-17z"/>
<path d="M8791 11858 c-29 -137 76 -254 242 -274 96 -11 168 27 201 107 l15
35 -115 -2 c-86 -2 -121 -6 -139 -18 -25 -16 -25 -16 -25 12 0 36 -20 62 -103
135 l-66 57 -10 -52z"/>
<path d="M7485 11776 c-5 -3 -27 -7 -47 -11 -21 -3 -51 -17 -68 -31 -27 -23
-30 -31 -30 -84 0 -35 10 -91 25 -139 l26 -81 47 8 c60 9 203 9 263 0 l46 -7
23 77 c13 42 26 102 28 133 4 48 1 59 -19 81 -13 14 -40 31 -59 38 -34 11
-216 24 -235 16z m79 -113 c11 -41 22 -42 31 -3 7 30 21 47 32 36 3 -3 -4 -31
-16 -62 -11 -31 -21 -67 -21 -80 0 -19 -5 -24 -25 -24 -22 0 -25 4 -25 35 0
19 -9 57 -20 85 l-20 51 27 -3 c21 -2 29 -10 37 -35z"/>
<path d="M7005 11673 c-11 -2 -108 -33 -215 -68 -321 -106 -340 -109 -530
-109 -146 0 -172 3 -230 23 -36 12 -80 32 -97 43 l-33 20 0 -29 c0 -51 28
-160 53 -209 50 -97 125 -145 261 -166 153 -24 333 14 751 155 121 42 240 78
264 82 l44 7 -7 51 c-3 28 -18 76 -33 107 -22 43 -37 60 -73 78 -42 21 -102
27 -155 15z m107 -80 c20 -18 24 -73 7 -105 -10 -19 -81 -57 -106 -58 -10 0
-13 23 -13 84 0 80 1 85 23 89 47 9 71 6 89 -10z m-140 -88 c9 -39 18 -73 18
-77 0 -13 -42 -20 -50 -8 -11 17 -41 5 -47 -19 -3 -11 -14 -21 -24 -24 -15 -4
-19 -1 -15 11 2 9 10 44 16 77 18 100 19 103 38 108 38 10 46 2 64 -68z m-112
30 c0 -8 -7 -15 -15 -15 -12 0 -15 -16 -15 -80 0 -44 -4 -80 -9 -80 -5 0 -16
-3 -25 -6 -14 -5 -16 4 -16 65 0 64 -2 71 -20 71 -37 0 -20 26 28 42 61 21 72
21 72 3z m-149 -45 c21 -12 26 -59 8 -77 -9 -9 -6 -19 10 -41 18 -26 19 -31 5
-36 -29 -11 -43 -6 -58 22 l-15 27 -1 -37 c0 -21 -4 -38 -9 -38 -5 0 -16 -3
-25 -6 -14 -5 -16 6 -16 85 l0 90 33 10 c43 12 45 13 68 1z m-131 -34 c0 -8
-10 -16 -22 -18 -15 -2 -24 -11 -26 -27 -3 -21 0 -23 22 -19 17 4 26 1 26 -8
0 -7 -10 -14 -22 -16 -17 -2 -24 -11 -26 -31 -3 -25 -1 -27 22 -21 19 4 26 2
26 -9 0 -9 -17 -18 -50 -24 l-50 -10 0 87 0 88 48 10 c26 5 48 10 50 11 1 0 2
-5 2 -13z m-410 -97 c0 -62 2 -71 20 -76 11 -3 20 -9 20 -14 0 -12 -32 -11
-64 1 -25 9 -26 13 -26 85 0 73 1 75 25 75 24 0 25 -2 25 -71z m268 59 c17
-17 15 -48 -4 -55 -15 -5 -15 -7 0 -15 22 -12 21 -65 -1 -76 -10 -6 -37 -13
-60 -17 l-43 -7 0 91 0 91 48 0 c26 0 53 -5 60 -12z m-148 -78 c0 -79 0 -80
-25 -80 -25 0 -25 1 -25 80 0 79 0 80 25 80 25 0 25 -1 25 -80z"/>
<path d="M7050 11531 c0 -34 4 -61 10 -61 24 0 26 110 3 118 -10 3 -13 -13
-13 -57z"/>
<path d="M6911 11529 c0 -9 -4 -31 -7 -48 -5 -24 -3 -31 10 -31 17 0 19 16 6
65 -4 17 -8 23 -9 14z"/>
<path d="M6660 11433 c0 -23 4 -33 9 -27 17 17 17 64 1 64 -5 0 -10 -17 -10
-37z"/>
<path d="M6370 11385 c0 -26 24 -35 32 -12 7 18 -2 37 -18 37 -8 0 -14 -10
-14 -25z"/>
<path d="M6377 11333 c-10 -10 -8 -63 2 -63 20 0 33 28 21 49 -12 23 -14 24
-23 14z"/>
<path d="M7994 11660 c-62 -19 -104 -89 -129 -216 l-6 -31 63 -13 c34 -6 171
-47 303 -90 373 -121 551 -154 705 -131 152 23 238 96 278 235 21 74 37 166
28 166 -2 0 -26 -14 -53 -30 -76 -47 -171 -63 -343 -57 -166 6 -221 18 -505
108 -195 63 -281 77 -341 59z m151 -75 c47 -46 25 -155 -30 -155 -25 0 -72 27
-79 45 -11 30 -6 90 10 113 21 30 68 29 99 -3z m106 -20 c74 -27 98 -64 63
-100 -15 -14 -15 -19 0 -57 9 -22 15 -43 12 -45 -10 -11 -45 19 -57 49 l-13
33 -3 -27 c-4 -29 -10 -32 -37 -22 -13 5 -16 23 -16 95 0 49 2 89 4 89 2 0 23
-7 47 -15z m161 -54 c54 -23 77 -49 85 -95 11 -70 -38 -104 -111 -76 -25 9
-26 12 -26 100 0 49 2 90 4 90 2 0 24 -8 48 -19z m206 -70 c3 -8 -4 -11 -19
-9 -18 2 -25 -2 -27 -19 -3 -17 3 -24 22 -29 33 -8 34 -24 1 -24 -39 0 -34
-39 5 -46 17 -4 30 -13 30 -20 0 -17 0 -17 -56 -3 l-44 11 0 88 0 88 42 -13
c23 -6 44 -17 46 -24z m95 -10 c18 -7 28 -23 41 -70 9 -34 20 -61 23 -61 3 0
3 27 -1 60 -6 50 -5 60 9 60 12 0 15 -15 15 -85 0 -74 -2 -85 -17 -85 -31 0
-46 17 -69 77 l-23 58 0 -63 c-1 -39 -5 -61 -11 -57 -13 8 -13 175 -1 175 5 0
21 -4 34 -9z"/>
<path d="M8085 11588 c-4 -9 -5 -42 -3 -74 2 -44 7 -59 18 -59 22 0 27 117 6
135 -13 10 -17 10 -21 -2z"/>
<path d="M8250 11506 c0 -26 4 -36 16 -36 11 0 14 8 12 32 -4 46 -28 49 -28 4z"/>
<path d="M8410 11423 c0 -40 4 -73 8 -73 35 0 44 84 12 121 l-19 24 -1 -72z"/>
<path d="M4865 11571 c-117 -65 -120 -67 -115 -96 3 -17 5 -64 4 -105 -1 -89
-30 -157 -90 -210 -64 -56 -118 -74 -209 -73 -44 1 -91 3 -104 5 -21 3 -31
-10 -84 -112 l-61 -115 63 -95 c34 -52 89 -149 121 -215 108 -223 157 -410
167 -645 7 -179 -6 -315 -58 -600 -49 -273 -66 -395 -75 -541 l-7 -116 89 -6
c179 -13 260 -60 283 -165 14 -66 14 -78 0 -144 -9 -43 -20 -62 -58 -98 -56
-55 -118 -77 -237 -87 l-84 -6 0 -32 c0 -89 23 -410 41 -570 109 -990 415
-1593 1009 -1990 207 -138 457 -245 1015 -435 467 -159 791 -286 1002 -394
l45 -22 -134 -13 c-500 -47 -1154 -251 -1950 -610 -136 -61 -249 -111 -251
-111 -3 0 5 18 16 40 25 52 26 149 2 208 -47 115 -215 176 -379 138 -87 -21
-187 -73 -251 -132 l-49 -46 -61 18 c-87 26 -232 24 -305 -4 -73 -29 -125 -73
-158 -136 l-27 -51 -3 -318 c-4 -347 1 -389 49 -486 115 -231 477 -304 919
-185 187 51 398 135 972 387 430 189 699 289 948 352 469 120 913 123 1377 10
284 -69 512 -154 1098 -410 546 -239 701 -299 905 -350 224 -56 455 -60 607
-11 191 62 288 175 314 363 6 49 9 190 7 354 -5 311 -10 339 -79 408 -95 94
-265 124 -431 74 l-50 -14 -46 44 c-119 110 -290 165 -428 137 -74 -15 -109
-33 -156 -78 -67 -64 -87 -187 -44 -274 9 -17 15 -33 13 -35 -2 -1 -109 45
-238 103 -820 371 -1486 577 -2004 620 l-90 7 130 63 c224 108 435 189 1035
395 594 204 836 325 1105 551 528 444 794 1190 838 2349 l3 86 -81 7 c-210 16
-305 94 -305 254 0 153 84 225 281 239 l89 6 0 91 c0 117 -21 282 -65 520 -19
104 -42 241 -50 303 -18 133 -20 393 -4 496 37 250 134 494 285 719 l54 80
-61 119 -61 120 -36 -8 c-115 -25 -232 4 -305 75 -69 67 -82 102 -82 228 0
108 0 112 -25 126 -14 8 -68 37 -121 66 l-96 52 -69 -61 c-284 -252 -606 -424
-912 -489 -334 -71 -762 -11 -1096 154 l-106 53 -191 -263 c-104 -145 -193
-266 -198 -268 -4 -3 -94 116 -201 264 l-195 268 -87 -44 c-190 -95 -373 -151
-591 -180 -158 -21 -390 -14 -529 15 -310 67 -606 227 -909 493 -37 32 -68 58
-70 57 -2 -1 -58 -31 -124 -68z m5408 -193 c17 -236 172 -389 394 -392 l82 -1
26 -55 27 -56 -53 -84 c-117 -189 -212 -427 -254 -634 -52 -263 -47 -344 60
-1046 13 -91 28 -206 31 -256 l7 -91 -54 -11 c-174 -34 -272 -114 -308 -250
l-12 -42 -879 0 -879 0 -8 38 c-4 20 -8 107 -8 192 0 132 4 167 24 237 l23 82
-67 79 -66 80 -102 -5 c-203 -11 -435 42 -575 131 l-42 26 0 666 0 666 173
244 c94 134 178 244 185 244 7 0 30 -9 51 -19 119 -61 403 -138 594 -162 160
-19 417 -8 562 26 220 50 421 136 615 263 103 67 292 213 318 245 13 15 19 14
71 -13 l58 -29 6 -73z m-5232 75 c284 -244 596 -406 913 -475 87 -19 131 -22
326 -22 190 -1 243 3 340 21 150 29 268 63 409 119 95 38 116 44 127 32 7 -7
87 -119 178 -247 l166 -235 -2 -665 -3 -666 -95 -48 c-149 -75 -260 -99 -460
-102 l-165 -2 -67 -79 -66 -79 19 -58 c30 -87 42 -242 30 -366 -6 -57 -11
-108 -11 -113 0 -4 -398 -8 -885 -8 -849 0 -885 1 -885 18 0 46 -36 119 -79
162 -54 54 -117 86 -215 108 l-72 16 4 65 c3 67 26 228 82 601 37 243 49 492
31 621 -36 248 -136 517 -280 749 l-48 77 28 55 28 56 41 -5 c54 -7 153 13
218 45 71 35 154 125 183 199 14 37 24 87 27 139 l4 81 51 26 c29 14 57 26 63
26 5 1 35 -20 65 -46z m2581 -2259 c140 -88 372 -146 576 -143 l114 1 29 -35
30 -36 -17 -68 c-28 -116 -29 -275 -4 -483 49 -406 4 -610 -174 -785 -48 -47
-116 -100 -164 -129 -87 -52 -288 -141 -386 -172 l-58 -18 -97 32 c-141 49
-346 151 -438 221 -79 60 -155 147 -193 221 -71 140 -87 342 -50 660 24 211
23 296 -6 438 l-17 83 29 35 29 34 155 4 c125 3 173 9 250 29 120 32 189 58
265 101 33 19 66 35 73 35 7 1 31 -11 54 -25z m-967 -1026 c0 -144 4 -199 19
-258 27 -113 95 -244 164 -320 113 -124 319 -248 560 -336 l102 -38 0 -1178
c0 -648 -2 -1178 -4 -1178 -3 0 -60 24 -128 54 -177 77 -342 138 -782 286
-703 237 -970 362 -1225 575 -335 279 -570 692 -701 1227 -58 238 -105 573
-115 828 -3 74 -8 154 -10 177 l-4 41 70 12 c91 16 198 69 243 122 34 39 66
112 66 150 0 17 35 18 873 18 l872 0 0 -182z m3576 140 c37 -138 131 -214 307
-248 l62 -13 0 -64 c0 -207 -44 -596 -95 -848 -80 -390 -203 -702 -386 -975
-194 -288 -416 -479 -754 -645 -222 -109 -368 -165 -868 -334 -414 -140 -623
-217 -771 -285 -43 -20 -80 -36 -82 -36 -2 0 -4 530 -4 1178 l0 1178 113 43
c302 117 505 255 613 418 88 133 139 380 118 581 l-10 92 873 0 872 0 12 -42z
m-2337 -3748 c460 -71 999 -246 1666 -540 577 -254 776 -317 1042 -327 195 -8
312 15 406 78 l42 28 0 -228 c0 -260 -6 -291 -72 -366 -143 -163 -472 -178
-883 -40 -145 48 -354 134 -715 293 -511 224 -761 319 -1028 392 -310 84 -581
117 -877 107 -498 -18 -885 -131 -1758 -516 -481 -212 -723 -303 -927 -347
-125 -27 -371 -25 -457 3 -116 39 -186 98 -233 198 -10 22 -15 91 -18 269 l-4
239 34 -22 c162 -109 439 -122 754 -37 179 49 319 104 864 343 609 268 1227
448 1705 497 82 8 334 -5 459 -24z m-2912 -301 c39 -9 63 -22 91 -49 34 -35
37 -42 37 -95 0 -52 -3 -60 -34 -91 -31 -31 -40 -34 -90 -34 -31 0 -85 9 -119
21 -68 23 -237 108 -237 120 0 26 137 106 215 125 65 16 74 16 137 3z m5289 1
c68 -13 164 -59 208 -101 l34 -32 -94 -48 c-118 -60 -206 -89 -274 -89 -44 0
-58 5 -83 28 -62 58 -49 167 25 213 59 37 104 44 184 29z m-5816 -175 c33 -13
126 -56 206 -98 96 -49 171 -81 223 -93 l78 -18 -36 -13 c-163 -56 -430 -86
-564 -63 -98 16 -204 69 -233 117 -91 147 109 250 326 168z m6496 4 c52 -26
79 -64 79 -110 0 -104 -172 -189 -386 -189 -108 0 -287 29 -394 63 l-75 24 40
8 c73 14 179 57 310 125 120 63 192 92 255 104 43 7 133 -5 171 -25z"/>
<path d="M9292 10530 c-136 -25 -297 -101 -391 -187 -95 -86 -114 -145 -56
-171 65 -30 161 -3 245 67 118 99 195 126 336 119 154 -8 259 -71 312 -187 36
-79 35 -195 -3 -280 -65 -145 -218 -225 -577 -305 -28 -6 -28 -8 -28 -82 l0
-76 57 7 c132 16 353 90 471 157 92 52 200 155 235 223 100 198 68 428 -79
571 -57 56 -147 106 -234 129 -70 19 -220 27 -288 15z m-302 -230 c0 -13 -7
-20 -19 -20 -22 0 -35 15 -26 30 12 19 45 11 45 -10z"/>
<path d="M8437 9993 c22 -140 152 -228 441 -298 l72 -17 0 -198 0 -198 50 -11
c87 -19 80 -36 80 197 l0 209 58 12 c31 7 105 29 164 47 180 58 277 141 294
252 l7 42 -586 0 -586 0 6 -37z"/>
<path d="M8829 9485 c-119 -43 -180 -100 -186 -172 -9 -103 68 -154 307 -204
205 -42 256 -57 325 -91 70 -34 119 -78 146 -130 46 -90 106 -2 65 95 -7 18
-36 53 -63 79 -87 80 -199 126 -408 167 -151 30 -195 47 -195 75 0 23 34 46
65 46 12 0 15 16 15 75 0 84 -2 86 -71 60z"/>
<path d="M8950 9038 l0 -33 -89 -28 c-92 -28 -135 -55 -146 -94 l-6 -23 310 0
c300 0 311 1 311 19 0 41 -88 88 -217 116 -26 5 -33 12 -33 30 0 19 -7 24 -42
29 -24 4 -53 9 -65 13 -21 5 -23 1 -23 -29z"/>
<path d="M5913 10519 c-23 -11 -49 -31 -58 -45 -10 -15 -25 -24 -41 -24 -77 0
-445 -73 -486 -96 -3 -2 3 -33 15 -69 16 -50 26 -65 40 -65 11 0 17 -5 14 -12
-2 -7 -58 -187 -123 -400 l-119 -388 -32 0 c-29 0 -33 -3 -33 -25 0 -63 75
-141 162 -169 164 -53 409 -42 538 24 39 20 110 92 110 113 0 6 3 22 6 34 5
20 2 22 -37 25 l-42 3 -134 418 c-74 231 -132 421 -130 424 9 8 181 33 233 33
44 0 52 -3 64 -25 15 -28 84 -65 121 -65 35 0 96 33 121 65 21 27 23 28 108
22 95 -7 190 -25 190 -35 0 -4 -60 -194 -134 -422 l-133 -415 -42 -3 c-39 -3
-42 -5 -37 -25 3 -12 6 -28 6 -34 0 -21 71 -93 110 -113 129 -66 374 -77 538
-24 87 28 162 106 162 169 0 22 -4 25 -32 25 l-33 0 -119 388 c-65 213 -121
393 -123 400 -3 7 3 12 14 12 14 0 24 15 40 65 12 36 18 67 15 69 -36 22 -411
96 -485 96 -19 0 -37 10 -55 31 -28 34 -77 59 -114 59 -13 0 -42 -9 -65 -21z
m-241 -911 l55 -188 -98 0 -99 0 1 333 0 332 43 -145 c24 -80 68 -229 98 -332z
m754 -185 c-2 -2 -46 -2 -98 -1 l-94 3 96 326 95 326 3 -325 c1 -179 1 -327
-2 -329z m279 25 l7 -28 -96 0 -96 0 1 328 0 327 89 -300 c49 -165 92 -312 95
-327z m-1265 292 l0 -320 -96 0 c-73 0 -95 3 -91 13 2 6 44 150 93 320 49 169
90 307 91 307 2 0 3 -144 3 -320z"/>
<path d="M7545 9198 c-2 -7 -5 -56 -7 -108 -3 -72 -10 -107 -27 -145 -49 -106
-44 -168 18 -199 44 -23 59 -20 97 18 44 44 45 83 4 173 -21 45 -30 82 -30
117 0 28 -3 75 -6 104 -6 42 -10 52 -26 52 -10 0 -20 -6 -23 -12z"/>
<path d="M7270 9004 c0 -3 23 -74 52 -157 71 -207 118 -257 241 -257 129 0
182 56 256 270 22 63 43 123 46 133 6 13 2 17 -15 17 -18 0 -31 -19 -73 -109
-47 -100 -54 -111 -91 -128 -23 -10 -60 -32 -83 -50 -29 -22 -43 -28 -46 -19
-3 7 -40 31 -84 54 l-78 41 -43 106 c-34 82 -48 105 -63 105 -10 0 -19 -3 -19
-6z"/>
<path d="M7170 8845 c0 -10 179 -321 201 -349 58 -74 204 -101 305 -57 73 32
100 66 194 241 45 85 85 158 87 163 2 4 -7 7 -21 7 -20 0 -36 -19 -98 -116
l-73 -116 -67 -28 c-36 -15 -80 -37 -97 -49 l-31 -22 -37 26 c-21 14 -67 36
-103 50 -65 25 -65 25 -140 140 -59 90 -80 115 -97 115 -13 0 -23 -2 -23 -5z"/>
<path d="M7204 8583 c53 -76 107 -160 120 -188 27 -59 88 -117 142 -136 129
-44 302 18 345 125 7 17 57 97 111 178 54 81 98 150 98 153 0 3 -10 5 -22 5
-18 0 -49 -34 -130 -140 -107 -138 -109 -140 -185 -175 -42 -20 -85 -43 -95
-52 -17 -15 -19 -15 -37 1 -10 9 -54 32 -96 51 l-78 34 -106 138 c-87 113
-112 139 -135 141 -27 3 -24 -2 68 -135z"/>
<path d="M6880 8648 c0 -7 -7 -120 -15 -251 -11 -168 -13 -249 -5 -275 12 -46
55 -89 96 -98 39 -7 91 18 106 51 25 55 -26 147 -106 190 l-36 20 0 187 c0
181 -1 188 -20 188 -11 0 -20 -6 -20 -12z"/>
<path d="M8210 8462 l0 -179 -46 -32 c-93 -67 -123 -157 -70 -210 35 -35 94
-35 131 -1 61 57 63 82 43 408 -11 191 -11 192 -35 192 l-23 0 0 -178z"/>
<path d="M7056 8578 c4 -7 53 -80 108 -163 56 -82 117 -181 136 -220 41 -81
91 -125 175 -151 l55 -18 0 -153 c0 -84 -4 -153 -8 -153 -5 0 -17 9 -26 19
-14 15 -15 24 -7 40 30 55 -2 170 -58 210 l-31 22 0 -28 c0 -15 -9 -58 -19
-95 -11 -37 -17 -76 -14 -88 4 -16 1 -20 -19 -20 -25 0 -151 -85 -157 -105 -4
-17 68 -47 111 -47 27 1 57 11 89 31 l49 30 27 -24 c16 -13 26 -25 23 -28 -3
-2 -49 -37 -102 -77 -54 -40 -98 -76 -98 -80 0 -6 66 -30 82 -30 2 0 38 25 79
56 l74 55 3 -85 c3 -92 15 -112 57 -96 17 6 21 19 25 94 l5 86 79 -56 79 -56
43 12 c24 7 44 16 44 19 0 4 -49 42 -110 85 -60 42 -110 78 -110 80 0 1 14 12
30 25 l30 22 33 -24 c45 -34 96 -49 133 -38 34 10 94 39 94 46 0 2 -15 12 -32
21 -18 9 -48 30 -66 46 -19 16 -47 31 -63 35 -25 5 -29 10 -29 39 0 18 -5 45
-11 61 -6 15 -14 53 -18 83 l-7 55 -41 -40 c-26 -26 -45 -56 -53 -84 -11 -41
-10 -56 11 -129 2 -8 -6 -21 -18 -29 l-23 -15 0 154 0 154 55 18 c68 21 158
100 176 154 6 20 65 117 131 215 111 166 117 177 93 177 -21 0 -47 -28 -150
-157 l-124 -157 -75 -26 c-41 -15 -92 -38 -114 -52 l-38 -26 -26 23 c-15 13
-64 36 -108 52 l-82 28 -126 158 c-99 123 -131 157 -149 157 -17 0 -22 -4 -17
-12z"/>
<path d="M7000 8457 c0 -3 25 -76 56 -163 55 -158 55 -159 40 -199 -9 -22 -16
-53 -16 -68 0 -25 -3 -27 -39 -27 -21 0 -58 -7 -81 -15 -23 -8 -56 -15 -73
-15 l-31 0 39 -40 c53 -54 109 -75 162 -61 50 14 128 72 148 111 27 53 18 88
-74 285 -71 153 -92 191 -109 193 -12 2 -22 1 -22 -1z"/>
<path d="M8010 8268 c-47 -100 -88 -193 -92 -207 -20 -70 48 -156 146 -187 67
-21 118 -8 177 46 l44 39 -36 1 c-20 0 -62 9 -94 20 -32 11 -69 20 -82 20 -13
0 -21 4 -18 10 3 5 -2 37 -11 70 -16 58 -16 62 4 118 99 274 93 252 69 252
-19 0 -35 -28 -107 -182z"/>
<path d="M7270 8079 c0 -13 -14 -53 -30 -87 -17 -35 -30 -72 -30 -83 0 -12 -9
-21 -27 -25 -16 -3 -48 -18 -73 -32 -25 -14 -60 -28 -79 -31 l-34 -6 43 -42
c75 -75 157 -66 245 28 94 101 99 193 15 274 l-30 29 0 -25z"/>
<path d="M7834 8068 c-42 -44 -55 -72 -56 -117 -1 -54 9 -79 53 -138 27 -36
55 -59 94 -79 51 -24 60 -26 96 -15 39 12 109 64 109 82 0 5 -9 9 -21 9 -11 0
-49 16 -83 35 -35 19 -70 35 -79 35 -10 0 -17 8 -17 18 0 9 -12 42 -27 72 -14
30 -29 72 -32 93 l-6 38 -31 -33z"/>
<path d="M5600 7486 c-151 -32 -238 -121 -275 -278 -8 -35 -15 -68 -15 -73 0
-9 157 -55 188 -55 8 0 12 17 12 53 0 107 74 187 172 187 l38 0 0 -157 c0
-242 -21 -405 -61 -485 -21 -41 -73 -97 -134 -145 l-39 -31 68 -76 68 -76 38
30 c51 40 131 141 164 208 57 113 86 314 86 599 l0 133 150 0 151 0 -8 -172
c-4 -95 -8 -256 -8 -358 0 -155 3 -194 19 -239 27 -77 86 -135 160 -156 71
-21 169 -16 234 10 l42 17 0 89 0 88 -35 -15 c-19 -7 -61 -14 -94 -14 -49 0
-65 4 -90 26 -17 14 -35 42 -41 62 -11 42 -13 287 -3 510 l6 151 121 3 121 3
3 88 3 87 -493 -1 c-342 0 -510 -4 -548 -13z"/>
<path d="M8732 7863 c-66 -85 -65 -84 -41 -154 27 -83 23 -122 -34 -274 -74
-200 -81 -238 -81 -425 0 -151 3 -173 28 -255 15 -49 61 -160 103 -245 64
-129 78 -165 81 -215 4 -55 2 -63 -22 -87 l-27 -26 24 -59 23 -58 113 0 113 0
410 640 c225 352 421 663 434 690 45 94 23 180 -56 222 -55 29 -100 29 -225
-2 -166 -41 -302 -32 -430 29 -88 42 -149 96 -211 186 l-48 70 -62 0 c-60 0
-63 -1 -92 -37z m178 -822 l-1 -586 -21 40 c-109 207 -148 345 -148 532 0 153
13 230 69 406 23 70 44 152 47 183 l7 55 23 -22 24 -22 0 -586z m120 494 l30
-16 0 -516 0 -516 -31 -49 c-17 -26 -33 -48 -35 -48 -2 0 -4 261 -4 580 0 319
2 580 5 580 4 0 19 -7 35 -15z m658 -47 c22 -22 12 -53 -43 -136 -31 -45 -58
-82 -60 -82 -3 0 -5 44 -5 99 l0 98 38 16 c47 19 55 20 70 5z m-509 -19 l31
-11 0 -375 0 -374 -30 -45 c-17 -24 -33 -44 -35 -44 -3 0 -5 194 -5 430 0 237
2 430 4 430 1 0 17 -5 35 -11z m321 -174 c0 -153 0 -156 -27 -197 l-28 -42 -3
189 c-3 196 -1 204 41 205 15 0 17 -14 17 -155z m-140 -113 l0 -258 -35 -50
-35 -49 0 308 0 307 35 0 35 0 0 -258z"/>
<path d="M7458 4443 l-28 -4 0 -174 c0 -96 3 -175 8 -177 4 -2 35 -2 70 0 62
4 63 4 60 30 -3 24 -7 27 -40 25 l-38 -2 0 49 c0 49 1 50 30 50 27 0 30 3 30
30 0 27 -3 30 -30 30 -29 0 -30 2 -30 45 l0 45 41 0 c38 0 40 1 37 28 -3 24
-7 27 -43 28 -22 1 -52 -1 -67 -3z"/>
<path d="M7617 4443 c-4 -3 -7 -84 -7 -180 l0 -173 31 0 31 0 -4 130 c-2 72
-3 130 -2 130 1 0 11 -43 23 -95 21 -87 24 -95 46 -95 21 0 25 8 44 86 11 47
21 88 23 89 2 2 1 -54 0 -124 l-4 -128 27 -5 c15 -3 28 -1 31 6 3 7 3 86 2
176 l-3 165 -34 0 c-33 0 -35 -2 -58 -69 -12 -39 -24 -84 -24 -100 l-2 -31 -4
30 c-2 17 -13 63 -25 103 -17 58 -27 76 -45 83 -29 11 -37 11 -46 2z"/>
<path d="M7210 4244 l0 -177 43 7 c85 13 130 67 135 165 7 128 -29 181 -124
181 l-54 0 0 -176z m106 92 c33 -52 14 -183 -31 -199 -13 -6 -15 9 -15 108 0
95 3 115 15 115 8 0 22 -11 31 -24z"/>
<path d="M7890 4245 c0 -144 2 -175 14 -175 8 0 21 -3 30 -6 14 -5 16 13 16
169 0 150 -2 176 -16 181 -44 17 -44 15 -44 -169z"/>
<path d="M7055 4386 l-40 -12 -17 -129 c-9 -72 -19 -152 -23 -178 l-6 -48 28
7 c34 8 43 20 43 56 0 20 7 28 29 36 29 10 30 10 36 -28 6 -38 8 -39 38 -33
18 3 33 6 34 7 7 5 -64 330 -72 332 -6 1 -28 -3 -50 -10z m29 -158 c5 -44 4
-48 -16 -48 -19 0 -20 4 -14 53 3 28 6 66 7 82 1 30 1 30 9 -5 4 -19 10 -56
14 -82z"/>
<path d="M8023 4223 c-29 -86 -50 -160 -47 -165 3 -4 16 -8 30 -8 19 0 28 7
35 30 9 24 17 30 39 30 26 0 29 -4 32 -37 3 -35 5 -37 53 -50 73 -19 85 -17
85 12 0 19 -7 26 -27 31 -52 11 -53 12 -53 60 l0 46 35 -6 c34 -7 35 -6 35 24
0 23 -4 30 -19 30 -40 0 -51 11 -51 50 l0 39 32 -10 c46 -13 48 -12 48 19 0
27 -4 29 -72 45 -40 10 -80 17 -88 17 -11 0 -31 -46 -67 -157z m87 8 c0 -65
-1 -69 -21 -64 -13 4 -19 12 -16 22 3 9 11 37 18 64 7 26 14 47 16 47 2 0 3
-31 3 -69z"/>
<path d="M6873 4344 c-57 -28 -78 -76 -78 -176 0 -95 15 -130 69 -156 40 -20
86 -7 86 24 0 18 -5 24 -21 24 -33 0 -56 17 -68 51 -26 75 -2 163 49 182 23 9
30 17 30 39 0 33 -18 36 -67 12z"/>
<path d="M6659 4288 l-36 -9 -30 -180 c-31 -190 -32 -189 21 -169 17 6 26 17
26 32 0 32 11 45 40 49 21 3 26 -1 28 -23 2 -18 9 -28 20 -28 43 1 44 9 16
178 -16 97 -32 162 -38 161 -6 -1 -27 -5 -47 -11z m26 -205 c-2 -7 -10 -13
-18 -13 -10 0 -11 14 -6 68 5 37 9 76 10 87 1 11 6 -14 10 -55 5 -41 7 -81 4
-87z"/>
<path d="M8578 4231 c-13 -11 -30 -37 -36 -59 -15 -48 -15 -154 -2 -204 13
-45 62 -88 100 -88 15 0 47 -7 70 -15 23 -8 44 -15 46 -15 2 0 4 14 4 30 0 23
-6 33 -25 40 -22 9 -24 12 -14 37 19 47 13 176 -10 228 -28 64 -85 84 -133 46z
m75 -59 c35 -39 31 -203 -6 -226 -15 -9 -22 -7 -38 13 -26 32 -28 184 -2 213
20 22 26 23 46 0z"/>
<path d="M8350 4170 c-11 -11 -20 -24 -20 -30 0 -5 9 -19 20 -30 30 -30 65
-13 65 30 0 43 -35 60 -65 30z"/>
<path d="M8781 4053 c1 -164 12 -209 58 -240 44 -30 76 -29 106 2 24 23 25 29
25 168 0 142 0 145 -22 151 -13 3 -26 6 -30 6 -4 0 -9 -64 -10 -142 -2 -86 -7
-143 -13 -145 -6 -2 -20 3 -30 11 -18 13 -20 29 -23 159 -3 143 -4 145 -28
156 -14 6 -27 11 -29 11 -3 0 -5 -62 -4 -137z"/>
<path d="M6184 4134 c-74 -36 -71 -126 5 -198 40 -38 43 -83 7 -92 -14 -3 -30
-3 -36 1 -8 5 -10 -4 -8 -26 3 -31 6 -34 41 -37 32 -3 43 2 72 31 54 54 41
127 -31 182 -25 19 -34 34 -34 54 0 30 15 41 54 41 19 0 22 4 18 30 -3 25 -9
30 -31 30 -14 0 -40 -7 -57 -16z"/>
<path d="M6396 4074 c-30 -30 -13 -74 29 -74 44 0 63 60 26 80 -27 14 -37 13
-55 -6z"/>
<path d="M9059 4087 c-92 -294 -96 -312 -81 -324 26 -21 39 -15 46 22 8 40 7
40 46 20 25 -13 30 -21 30 -54 0 -35 3 -40 38 -54 20 -9 54 -23 75 -31 l37
-16 0 35 c0 33 -4 37 -45 55 -43 18 -45 21 -45 60 0 43 4 46 44 30 24 -9 26
-7 26 18 0 22 -7 32 -35 45 -30 14 -35 21 -35 52 0 40 3 41 54 20 l37 -16 -3
32 c-3 31 -8 35 -95 70 -51 21 -93 37 -94 36z m41 -147 c0 -80 -6 -92 -37 -72
-9 6 -9 21 3 67 28 113 34 113 34 5z"/>
<path d="M6003 4059 c-24 -10 -43 -24 -43 -31 0 -7 -9 -89 -20 -182 -12 -93
-19 -170 -17 -172 2 -2 18 1 35 7 28 10 32 15 32 49 0 34 4 39 32 49 17 6 32
10 33 9 1 -2 6 -15 11 -30 8 -24 11 -25 35 -15 l27 12 -38 158 c-20 87 -39
159 -41 161 -2 2 -23 -5 -46 -15z m31 -155 c13 -51 13 -52 -12 -63 l-25 -12 7
47 c3 26 7 65 7 88 1 27 3 32 6 16 2 -14 10 -48 17 -76z"/>
<path d="M9280 3816 c0 -158 2 -185 16 -190 39 -15 44 -8 44 61 0 79 8 74 39
-25 l23 -73 64 -30 c69 -32 140 -59 156 -59 5 0 8 12 6 28 -2 22 -11 30 -45
42 -43 14 -43 15 -43 63 0 49 0 49 27 42 46 -11 47 -11 51 13 3 19 -4 26 -37
40 -39 16 -41 19 -41 60 l0 42 36 -15 c49 -20 54 -19 54 10 0 22 -10 30 -66
55 -36 17 -70 30 -75 30 -5 0 -9 -76 -10 -172 l0 -173 -39 99 -39 99 19 25
c28 34 27 101 -2 137 -17 22 -111 75 -133 75 -3 0 -5 -83 -5 -184z m88 82 c24
-24 9 -98 -20 -98 -4 0 -8 25 -8 55 0 56 6 65 28 43z"/>
<path d="M5803 3980 c-23 -9 -23 -12 -23 -190 0 -99 2 -180 4 -180 2 0 29 10
60 21 53 21 56 24 56 56 l0 34 -30 -16 -30 -16 0 151 c0 82 -3 150 -7 149 -5
0 -18 -4 -30 -9z"/>
<path d="M5693 3935 l-33 -14 0 -144 c0 -150 -9 -187 -43 -174 -14 5 -17 28
-19 146 l-3 140 -25 -12 c-25 -13 -25 -13 -25 -161 0 -145 0 -148 25 -168 48
-39 130 7 150 84 6 20 9 100 8 177 l-3 139 -32 -13z"/>
<path d="M5417 3808 c-26 -11 -47 -24 -47 -28 0 -5 -11 -86 -25 -181 -14 -95
-23 -174 -20 -177 2 -3 18 1 35 8 21 9 30 19 30 35 0 37 10 55 40 70 28 14 28
14 34 -25 6 -38 7 -39 31 -28 17 8 25 19 25 37 0 31 -45 299 -51 305 -2 3 -26
-5 -52 -16z m14 -205 c-27 -23 -33 -14 -26 40 13 112 18 118 30 42 10 -60 9
-72 -4 -82z"/>
<path d="M9860 3734 c0 -9 7 -73 15 -142 27 -233 20 -211 72 -233 30 -13 49
-16 53 -10 3 6 16 79 29 162 23 147 23 153 5 166 -10 7 -23 12 -28 10 -10 -3
-27 -86 -45 -217 -7 -52 -9 -57 -10 -25 -1 44 -29 277 -33 280 -2 0 -15 6 -30
13 -24 10 -28 9 -28 -4z"/>
<path d="M9721 3664 c-41 -29 -17 -78 36 -72 25 3 28 7 28 37 0 41 -30 58 -64
35z"/>
<path d="M10072 3488 l3 -171 50 -17 c102 -35 95 -35 95 -1 0 28 -4 32 -45 42
l-45 11 0 49 c0 27 2 49 4 49 3 0 16 -4 30 -10 24 -9 26 -7 26 19 0 24 -5 31
-30 36 -28 6 -30 10 -30 50 l0 44 41 -14 c53 -19 51 -20 47 13 -3 23 -11 30
-63 49 -33 12 -66 22 -73 22 -10 1 -12 -37 -10 -171z"/>
<path d="M4933 3623 c-23 -4 -23 -6 -23 -179 0 -96 2 -174 4 -174 3 0 16 4 30
10 25 9 26 14 26 80 0 40 4 70 10 70 6 0 10 -8 10 -18 0 -13 23 -55 55 -100 3
-4 65 20 65 25 0 3 -15 24 -33 47 -50 61 -50 63 -26 97 13 18 22 47 23 71 1
65 -46 89 -141 71z m81 -66 c8 -13 7 -24 -4 -44 -26 -46 -40 -40 -40 17 0 42
3 51 16 48 9 -2 22 -11 28 -21z"/>
<path d="M10240 3437 c0 -150 2 -176 16 -181 38 -14 44 -7 44 49 0 30 4 55 8
55 5 0 19 -29 31 -64 20 -56 27 -66 53 -71 16 -4 31 -5 33 -3 2 1 -10 35 -25
74 l-29 72 20 38 c14 27 19 51 16 77 -9 70 -46 103 -134 122 l-33 7 0 -175z
m94 77 c21 -20 20 -63 -1 -86 -26 -29 -33 -21 -33 42 0 62 7 71 34 44z"/>
<path d="M4795 3586 l-50 -12 -3 -172 c-3 -195 -9 -183 83 -159 44 12 50 17
53 41 4 30 -2 31 -50 11 -16 -6 -18 -1 -18 48 0 53 1 55 30 61 24 4 30 11 30
32 0 23 -3 25 -30 19 -30 -7 -30 -6 -30 39 0 39 3 46 19 46 35 0 51 12 51 36
0 27 -8 28 -85 10z"/>
<path d="M4250 3431 c0 -138 2 -151 19 -161 49 -26 51 -21 51 139 0 83 -3 152
-7 154 -5 2 -20 7 -35 11 l-28 6 0 -149z"/>
<path d="M5167 3573 c-4 -3 -7 -19 -7 -34 0 -39 33 -56 66 -34 27 17 29 27 14
56 -10 19 -59 27 -73 12z"/>
<path d="M10849 3573 c-24 -4 -28 -11 -43 -79 -9 -41 -16 -91 -17 -112 0 -33
-2 -30 -14 23 -26 116 -38 140 -73 143 l-32 3 0 -165 0 -166 30 0 c29 0 30 1
30 48 0 26 -5 78 -10 116 -6 38 -8 71 -6 73 2 2 12 -31 21 -75 21 -95 25 -103
51 -96 17 4 24 20 36 82 l16 77 -6 -92 c-3 -51 -2 -93 1 -93 3 0 18 5 32 12
l25 11 0 149 c0 81 -3 147 -7 147 -5 -1 -20 -4 -34 -6z m-2 -115 c-3 -8 -6 -5
-6 6 -1 11 2 17 5 13 3 -3 4 -12 1 -19z"/>
<path d="M4665 3559 c-22 -4 -59 -8 -82 -8 -41 -1 -43 -2 -43 -31 0 -25 4 -30
25 -30 l25 0 0 -140 0 -140 35 0 35 0 0 145 0 145 30 0 c28 0 30 3 30 35 0 19
-3 34 -7 34 -5 -1 -26 -5 -48 -10z"/>
<path d="M10440 3415 c0 -167 9 -196 63 -214 40 -13 72 -4 102 29 18 20 20 36
20 169 l0 146 -27 3 -28 3 0 -128 c0 -136 -10 -173 -44 -160 -14 5 -16 26 -16
146 0 135 -1 139 -22 145 -49 13 -48 14 -48 -139z"/>
<path d="M4362 3393 l3 -158 29 -3 29 -4 -6 69 c-4 37 -9 86 -12 108 -3 24 3
13 14 -30 45 -160 45 -160 74 -163 l27 -3 0 171 0 171 -27 -3 c-26 -3 -28 -6
-28 -53 0 -27 4 -75 8 -105 7 -55 7 -54 -12 16 -32 116 -46 144 -76 144 l-26
0 3 -157z"/>
<path d="M7375 11392 c-64 -41 -89 -75 -83 -112 12 -81 117 -24 158 86 9 23 8
24 -11 14 -20 -11 -20 -11 -4 19 8 17 12 31 8 31 -5 0 -35 -17 -68 -38z"/>
<path d="M7710 11381 c5 -11 15 -23 20 -26 6 -3 10 -11 10 -16 0 -5 -12 -2
-26 8 l-26 17 21 -41 c34 -68 102 -98 116 -53 9 27 -15 63 -67 100 -48 35 -63
38 -48 11z"/>
<path d="M21061 11380 c-149 -22 -281 -117 -311 -225 -19 -69 -9 -174 23 -228
45 -75 123 -124 357 -221 126 -52 190 -119 190 -198 0 -46 -32 -93 -79 -118
-71 -36 -286 -23 -434 26 -58 19 -60 18 -77 -68 -6 -33 -14 -66 -16 -73 -7
-17 104 -42 234 -54 339 -31 567 108 565 345 -1 148 -87 229 -357 338 -177 71
-226 115 -226 200 0 66 22 98 85 122 75 28 238 12 421 -41 19 -6 22 1 37 70
10 42 15 80 13 84 -7 12 -100 30 -206 41 -107 11 -142 11 -219 0z"/>
<path d="M24335 11373 c-55 -8 -103 -17 -106 -21 -6 -7 -429 -1098 -429 -1107
0 -3 45 -5 99 -5 l99 0 38 108 c20 59 45 127 53 152 l17 45 218 0 218 0 55
-152 55 -153 104 0 c61 0 104 4 104 10 0 10 -408 1108 -419 1126 -4 7 -36 6
-106 -3z m-9 -671 c-87 -1 -160 -1 -162 1 -3 3 117 353 152 447 3 8 43 -88 88
-215 l81 -230 -159 -3z"/>
<path d="M17077 11366 c-37 -7 -69 -15 -72 -18 -4 -4 398 -1105 411 -1126 0
-1 46 5 100 14 l99 16 210 545 c116 300 212 549 213 554 2 5 -43 9 -100 9
l-103 0 -149 -432 c-82 -238 -152 -439 -156 -446 -4 -8 -76 187 -165 442
l-158 456 -31 -1 c-17 -1 -61 -7 -99 -13z"/>
<path d="M13632 10923 c3 -478 2 -464 64 -555 62 -89 209 -148 368 -148 200 1
350 72 420 199 50 93 56 150 56 564 l0 377 -100 0 -100 0 0 -402 c0 -247 -4
-417 -10 -440 -25 -87 -102 -137 -211 -138 -95 0 -165 24 -215 74 -71 70 -74
92 -74 528 l0 378 -100 0 -101 0 3 -437z"/>
<path d="M15000 10800 l0 -561 93 3 92 3 5 406 5 406 289 -414 c159 -227 292
-416 296 -418 4 -3 44 3 89 12 l81 16 0 553 0 554 -90 0 -90 0 0 -407 c0 -345
-2 -405 -14 -393 -7 8 -134 192 -282 408 l-268 392 -103 0 -103 0 0 -560z"/>
<path d="M16440 10800 l0 -560 100 0 100 0 0 560 0 560 -100 0 -100 0 0 -560z"/>
<path d="M18400 10800 l0 -560 359 0 358 0 7 53 c3 28 6 65 6 81 l0 29 -260
-6 -260 -6 0 184 0 184 209 -6 209 -6 6 44 c4 24 9 56 12 72 l6 27 -221 0
-221 0 0 165 0 165 233 -6 c137 -4 236 -3 239 2 3 5 9 39 13 77 l7 67 -351 0
-351 0 0 -560z"/>
<path d="M19520 10800 l0 -561 103 3 102 3 3 228 2 227 64 0 c35 0 77 3 94 6
l31 6 118 -236 118 -236 113 0 c87 0 113 3 109 13 -3 6 -68 122 -145 257
l-141 245 27 20 c69 53 114 102 139 154 24 49 28 68 28 146 0 74 -4 98 -22
132 -28 52 -83 97 -153 125 -51 21 -75 23 -322 26 l-268 3 0 -561z m456 401
c23 -10 54 -36 70 -56 24 -32 29 -49 32 -109 3 -61 1 -76 -20 -105 -30 -45
-66 -70 -114 -81 -46 -11 -138 -13 -183 -4 l-31 7 0 183 0 184 103 0 c78 0
112 -5 143 -19z"/>
<path d="M21920 10800 l0 -560 105 0 105 0 0 560 0 560 -105 0 -105 0 0 -560z"/>
<path d="M22610 10800 l0 -560 173 0 c94 0 204 5 242 10 330 47 535 266 538
575 2 171 -43 294 -142 388 -68 65 -136 101 -239 128 -64 16 -111 19 -324 19
l-248 0 0 -560z m420 410 c85 -14 179 -60 225 -111 100 -111 130 -311 73 -484
-29 -88 -76 -146 -150 -186 l-63 -34 -150 0 -150 0 -3 413 -2 412 77 0 c43 0
107 -5 143 -10z"/>
<path d="M25222 10803 l3 -558 205 0 c240 1 314 13 443 77 206 103 316 299
304 543 -11 234 -124 393 -332 465 -66 23 -85 24 -348 28 l-277 4 2 -559z
m439 403 c206 -44 309 -181 309 -411 0 -187 -69 -319 -199 -379 -39 -17 -70
-21 -193 -24 l-148 -4 0 416 0 416 83 0 c45 0 112 -7 148 -14z"/>
<path d="M7431 11299 c-49 -62 -69 -116 -52 -148 7 -11 19 -21 27 -21 46 0 80
49 94 133 l8 51 -29 -35 c-33 -39 -34 -37 -14 21 8 24 13 45 11 47 -2 2 -22
-19 -45 -48z"/>
<path d="M7660 11301 c11 -29 19 -55 17 -57 -2 -2 -16 13 -31 33 l-28 38 6
-45 c11 -70 40 -128 70 -136 86 -21 66 109 -28 196 l-28 25 22 -54z"/>
<path d="M7528 11234 c-18 -28 -38 -126 -38 -181 0 -50 4 -67 20 -83 30 -30
83 -27 110 8 19 23 21 36 17 92 -7 83 -35 179 -47 159 -5 -7 -12 -32 -16 -54
l-7 -40 -17 54 c-9 30 -19 50 -22 45z"/>
<path d="M4032 10980 c-191 -104 -338 -285 -415 -510 -44 -130 -59 -225 -61
-375 -1 -184 20 -300 125 -668 81 -290 105 -518 65 -630 -10 -27 -16 -51 -14
-53 8 -7 152 87 222 144 314 257 507 720 467 1121 -20 199 -73 345 -211 582
-124 213 -157 307 -131 380 6 18 10 34 8 35 -1 2 -26 -10 -55 -26z m-203 -347
c-31 -180 -37 -454 -13 -646 24 -199 135 -709 151 -693 2 2 -2 64 -11 138 -29
259 -39 436 -40 713 -1 263 13 456 33 494 22 37 99 -565 133 -1022 13 -186 18
-188 44 -15 29 185 25 489 -9 710 -15 97 -33 207 -41 245 -8 37 -13 69 -12 71
6 5 156 -297 182 -365 83 -221 87 -509 8 -749 -55 -171 -175 -363 -307 -492
l-64 -64 -7 79 c-11 121 -40 254 -104 485 -76 270 -90 332 -101 460 -16 187
14 397 78 547 26 62 76 151 85 151 2 0 0 -21 -5 -47z"/>
<path d="M11046 10993 c5 -10 9 -48 8 -84 -1 -79 -18 -119 -144 -338 -134
-234 -181 -366 -200 -567 -37 -393 147 -843 451 -1102 74 -63 229 -165 237
-157 2 2 -1 19 -7 38 -51 154 -32 311 90 753 94 342 114 512 85 712 -35 236
-121 426 -260 570 -65 68 -153 135 -225 172 -40 20 -43 20 -35 3z m309 -403
c72 -142 108 -307 108 -500 0 -165 -19 -270 -103 -571 -67 -238 -95 -366 -106
-482 l-7 -79 -59 59 c-325 318 -448 790 -316 1208 19 62 186 411 193 403 1 -2
-8 -64 -21 -138 -48 -274 -58 -369 -57 -565 0 -185 12 -324 35 -429 11 -49 13
-42 30 164 26 314 66 665 94 829 13 80 24 149 24 153 0 5 4 7 9 4 20 -13 36
-239 35 -516 0 -278 -10 -442 -40 -704 -8 -71 -13 -131 -11 -133 5 -5 58 194
92 346 79 347 92 621 49 986 -5 48 -5 49 11 30 9 -11 27 -40 40 -65z"/>
<path d="M16990 9203 c-96 -13 -177 -27 -181 -31 -7 -8 -798 -2053 -806 -2083
-5 -19 1 -19 183 -17 l188 3 100 287 101 288 412 0 411 0 16 -42 c9 -24 56
-153 104 -288 l87 -245 204 -3 c130 -1 202 1 199 7 -1 6 -183 492 -403 1081
-352 940 -402 1070 -420 1069 -11 -1 -99 -12 -195 -26z m153 -834 l154 -434
-153 -3 c-84 -1 -224 -1 -312 0 l-159 3 148 425 c176 502 158 454 164 448 2
-2 74 -200 158 -439z"/>
<path d="M19275 9215 c-453 -71 -772 -354 -881 -782 -82 -325 -36 -697 118
-958 58 -99 211 -248 311 -304 97 -54 243 -105 361 -126 180 -31 440 -15 654
41 125 32 242 81 242 101 0 20 -70 243 -76 243 -3 0 -22 -9 -44 -20 -112 -57
-340 -97 -499 -87 -367 24 -605 228 -688 591 -21 91 -24 403 -5 491 38 175 90
283 182 376 116 119 231 161 435 161 157 -1 302 -21 467 -66 68 -19 124 -33
126 -31 10 9 90 291 84 296 -12 11 -103 37 -182 53 -181 36 -451 46 -605 21z"/>
<path d="M22660 9215 c-509 -81 -839 -412 -914 -917 -40 -267 -3 -552 99 -764
118 -245 313 -404 584 -476 97 -25 330 -35 453 -19 600 80 958 503 958 1131 0
448 -172 779 -492 949 -186 99 -443 134 -688 96z m260 -291 c188 -39 337 -157
423 -334 57 -117 85 -232 97 -397 26 -372 -66 -658 -252 -786 -93 -64 -174
-89 -314 -94 -226 -10 -397 48 -524 176 -163 165 -226 381 -217 736 5 202 22
286 81 410 122 256 369 357 706 289z"/>
<path d="M27850 9204 c-96 -14 -178 -28 -182 -32 -5 -5 -189 -474 -409 -1043
-221 -569 -403 -1040 -406 -1046 -4 -10 37 -13 186 -13 105 0 191 2 191 3 0 5
151 437 181 520 l21 57 412 0 412 0 103 -290 104 -290 203 0 202 0 -44 118
c-599 1608 -763 2037 -780 2039 -11 1 -98 -10 -194 -23z m145 -820 c83 -234
151 -432 153 -440 3 -12 -43 -14 -308 -14 -246 0 -311 3 -308 13 3 6 72 204
154 440 82 235 151 427 154 427 3 0 73 -192 155 -426z"/>
<path d="M13637 9183 c-4 -3 -7 -480 -7 -1060 l0 -1053 175 0 175 0 2 785 3
784 559 -800 c307 -441 564 -803 570 -805 6 -2 78 9 160 26 82 16 151 30 153
30 1 0 3 473 3 1050 l0 1050 -170 0 -170 0 -2 -779 -3 -779 -535 779 -534 779
-186 0 c-103 0 -190 -3 -193 -7z"/>
<path d="M20690 8130 l0 -1060 190 0 190 0 0 1060 0 1060 -190 0 -190 0 0
-1060z"/>
<path d="M24490 8130 l0 -1060 175 0 175 0 2 782 3 781 560 -801 c308 -441
564 -802 570 -802 5 0 79 14 163 31 l152 32 0 1049 0 1048 -172 -2 -173 -3 -5
-772 -5 -773 -505 737 c-278 405 -517 754 -533 775 l-27 38 -190 0 -190 0 0
-1060z"/>
<path d="M29430 8130 l0 -1060 633 0 633 0 17 133 c10 72 17 138 17 146 0 12
-67 13 -460 8 l-460 -7 0 920 0 920 -190 0 -190 0 0 -1060z"/>
<path d="M4225 9000 c-58 -115 -130 -204 -227 -283 -170 -136 -406 -190 -548
-124 l-45 20 46 6 c89 12 139 69 139 159 0 68 -19 111 -65 149 -49 41 -110 57
-193 51 -85 -6 -148 -34 -211 -93 -66 -61 -104 -123 -135 -216 -91 -272 12
-585 239 -728 256 -162 611 -122 828 92 115 113 181 241 223 428 30 134 21
474 -16 574 -6 17 -12 11 -35 -35z m-924 -150 c-29 -30 -51 -83 -51 -126 0
-11 7 -44 16 -73 72 -245 480 -268 777 -43 37 28 67 48 67 45 0 -4 -14 -31
-31 -62 -133 -236 -359 -366 -576 -333 -138 22 -224 85 -300 220 -19 34 -36
62 -38 62 -2 0 3 -24 11 -52 67 -233 234 -362 448 -345 201 16 385 129 513
317 41 60 44 62 38 30 -48 -245 -215 -449 -420 -513 -99 -31 -254 -30 -346 1
-215 73 -343 255 -343 487 0 180 78 335 197 394 59 30 74 26 38 -9z"/>
<path d="M10861 8999 c-24 -111 -34 -298 -22 -415 37 -369 211 -613 506 -711
70 -23 97 -27 210 -27 120 0 137 2 215 30 104 36 183 87 248 159 64 69 95 124
127 220 71 212 26 456 -111 605 -71 76 -140 111 -234 118 -86 6 -145 -10 -195
-51 -45 -37 -65 -81 -65 -144 0 -91 48 -148 136 -162 l49 -8 -50 -23 c-62 -29
-186 -32 -284 -6 -189 49 -386 217 -485 414 -14 28 -28 52 -30 52 -3 0 -9 -23
-15 -51z m1005 -139 c100 -49 178 -178 196 -327 35 -282 -147 -531 -421 -574
-137 -21 -290 10 -401 81 -132 85 -245 263 -285 450 -6 32 -2 28 43 -35 68
-96 185 -204 265 -243 251 -124 489 -82 615 108 33 50 98 207 89 216 -1 2 -23
-31 -47 -72 -74 -126 -159 -185 -294 -206 -174 -27 -356 53 -491 213 -40 48
-115 166 -115 181 0 5 30 -14 68 -42 238 -181 557 -211 710 -66 94 87 108 235
29 308 -35 33 -20 36 39 8z"/>
<path d="M10922 8033 c-22 -42 -64 -195 -82 -298 -63 -369 -18 -667 140 -921
47 -77 101 -145 262 -331 160 -186 257 -350 331 -556 6 -16 9 -16 35 -3 40 20
111 91 151 149 208 302 198 847 -22 1211 -113 187 -243 310 -537 506 -110 73
-201 156 -241 218 -24 38 -29 41 -37 25z m523 -568 c198 -198 314 -436 346
-706 14 -128 7 -276 -21 -384 -21 -83 -83 -223 -117 -264 l-20 -24 -43 79
c-87 158 -166 269 -356 499 -141 171 -226 323 -265 472 -23 90 -41 292 -32
365 l6 49 42 -128 c75 -224 154 -389 283 -585 62 -93 215 -288 227 -288 3 0
-38 86 -90 190 -185 370 -275 586 -330 795 l-24 90 41 -45 c61 -67 179 -227
241 -328 139 -225 227 -446 293 -737 l22 -100 1 57 c1 82 -26 276 -55 398 -63
256 -193 518 -363 730 -20 25 -43 54 -51 64 -36 47 184 -118 265 -199z"/>
<path d="M4168 8003 c-41 -61 -116 -129 -233 -210 -233 -162 -270 -190 -350
-269 -96 -94 -170 -195 -230 -314 -196 -390 -174 -912 52 -1182 43 -52 133
-122 143 -111 4 4 15 31 25 58 29 79 103 223 158 305 56 85 93 131 223 280
208 239 290 388 340 622 25 112 25 382 0 523 -28 163 -77 335 -96 335 -4 0
-19 -17 -32 -37z m-219 -342 c-8 -10 -42 -55 -77 -100 -125 -161 -229 -353
-290 -536 -58 -173 -103 -427 -101 -567 0 -53 0 -53 18 32 84 393 234 712 480
1017 45 56 86 105 91 108 17 11 -53 -223 -112 -372 -33 -83 -120 -275 -194
-425 -132 -270 -133 -272 -87 -223 195 210 366 515 473 845 37 114 38 115 45
76 11 -55 -10 -285 -35 -381 -44 -173 -142 -333 -352 -578 -79 -92 -185 -246
-258 -376 l-53 -93 -19 23 c-37 48 -98 186 -119 274 -29 117 -32 336 -6 468
63 318 244 579 541 784 70 48 73 50 55 24z"/>
<path d="M4355 6704 c-417 -319 -620 -577 -707 -902 -29 -110 -36 -344 -14
-470 50 -286 204 -474 433 -528 175 -41 333 34 364 172 10 46 10 60 -5 99 -41
107 -188 142 -266 64 l-30 -31 0 54 c1 36 12 81 36 143 19 50 49 131 67 180
18 50 33 92 34 94 2 2 26 -19 55 -48 98 -98 271 -160 412 -146 171 16 323 102
382 216 16 33 12 49 -15 49 -9 0 -55 18 -101 41 -65 31 -100 56 -155 112 -116
120 -179 260 -259 577 -68 270 -107 400 -120 400 -6 0 -56 -34 -111 -76z
m-200 -336 c-173 -297 -276 -650 -274 -933 1 -79 14 -218 18 -190 42 295 122
581 230 824 51 115 145 289 179 331 19 23 19 23 24 -96 12 -257 87 -477 207
-607 56 -60 83 -78 155 -103 l41 -15 -46 43 c-88 82 -159 215 -205 380 -21 76
-26 121 -30 248 -2 85 -2 151 1 145 3 -5 21 -68 40 -139 70 -257 152 -421 270
-541 39 -39 95 -83 127 -100 66 -34 64 -40 -20 -78 -164 -74 -366 -41 -469 77
-42 49 -95 159 -113 236 -8 30 -16 106 -19 169 -8 154 -26 158 -35 9 -13 -224
-47 -370 -147 -626 -70 -180 -82 -252 -55 -345 19 -67 76 -131 128 -146 31 -9
29 -9 -23 -10 -119 -2 -253 101 -328 252 -51 103 -70 183 -78 323 -13 237 49
450 195 669 59 90 234 285 255 285 5 0 -8 -28 -28 -62z"/>
<path d="M10646 6758 c-4 -13 -38 -142 -76 -288 -79 -305 -104 -380 -168 -505
-79 -152 -207 -263 -364 -314 -21 -7 -38 -16 -38 -21 0 -4 15 -30 33 -56 96
-140 315 -219 502 -181 105 22 213 75 276 139 27 27 52 49 53 47 2 -2 15 -38
29 -79 14 -41 44 -123 66 -182 29 -76 41 -122 41 -160 0 -49 -1 -51 -15 -32
-56 81 -211 66 -268 -25 -40 -66 -19 -178 45 -238 65 -61 190 -85 302 -59 204
48 353 209 417 451 32 121 38 367 11 495 -55 266 -180 472 -435 716 -110 106
-371 314 -394 314 -6 0 -14 -10 -17 -22z m400 -420 c229 -238 341 -483 351
-773 6 -167 -17 -291 -77 -413 -76 -153 -208 -253 -330 -251 -52 1 -53 1 -22
10 46 14 106 77 126 134 20 61 21 146 0 216 -9 30 -46 128 -84 219 -92 222
-130 378 -130 537 0 48 -3 63 -10 53 -5 -8 -10 -41 -10 -72 0 -131 -60 -304
-134 -385 -77 -86 -221 -132 -347 -112 -70 11 -99 22 -158 56 l-44 25 56 30
c117 63 234 201 306 360 34 77 91 250 116 356 10 40 19 71 22 69 10 -11 2
-240 -12 -313 -34 -179 -113 -349 -207 -445 l-56 -58 38 14 c82 29 125 62 184
139 102 134 176 384 176 600 l1 91 24 -30 c35 -43 120 -200 176 -323 93 -210
175 -487 215 -727 18 -105 19 -108 25 -65 11 68 10 235 -1 330 -29 238 -132
532 -270 768 -17 28 -26 52 -22 52 5 0 49 -42 98 -92z"/>
<path d="M17104 6011 c-135 -22 -266 -89 -342 -177 -53 -59 -108 -167 -127
-245 -19 -83 -19 -255 0 -338 69 -293 340 -447 677 -387 86 16 205 53 213 67
5 7 -21 113 -31 128 -2 1 -33 -8 -71 -20 -57 -20 -88 -24 -188 -24 -114 0
-123 2 -185 31 -114 54 -184 149 -210 281 -18 92 -8 263 19 335 29 76 96 149
163 178 48 21 63 22 178 17 106 -4 170 -15 261 -43 12 -3 21 12 38 71 12 41
20 79 17 84 -19 30 -305 59 -412 42z"/>
<path d="M18315 6013 c-197 -27 -362 -138 -439 -294 -51 -104 -69 -185 -69
-309 0 -180 50 -319 150 -419 120 -119 298 -165 495 -127 298 58 468 271 468
591 0 185 -53 327 -161 430 -108 104 -274 151 -444 128z m152 -168 c101 -30
178 -112 216 -229 28 -88 34 -269 13 -361 -27 -114 -86 -192 -174 -232 -45
-20 -197 -23 -258 -5 -97 29 -169 102 -216 221 -20 50 -22 74 -22 216 -1 143
2 166 22 216 30 74 85 137 146 165 41 19 68 24 137 24 47 0 108 -7 136 -15z"/>
<path d="M20745 6006 c-294 -58 -459 -255 -472 -561 -17 -380 211 -618 564
-591 272 21 463 174 530 426 23 88 23 271 -1 359 -63 232 -225 363 -464 376
-53 3 -114 -1 -157 -9z m230 -178 c94 -49 160 -143 185 -263 7 -33 12 -109 12
-170 -1 -190 -55 -306 -169 -361 -52 -26 -68 -29 -153 -29 -83 1 -103 5 -158
30 -112 50 -177 147 -202 297 -32 198 14 392 111 469 62 49 102 59 219 56 90
-3 112 -7 155 -29z"/>
<path d="M25811 6004 c-52 -7 -98 -17 -102 -21 -7 -8 -429 -1095 -429 -1106 0
-4 44 -7 99 -7 l99 0 53 155 54 155 219 -2 218 -3 29 -80 c16 -44 41 -113 55
-152 l26 -73 105 0 c103 0 105 1 100 21 -13 51 -421 1129 -426 1128 -3 -1 -48
-7 -100 -15z m149 -665 c0 -5 -70 -9 -160 -9 -88 0 -160 2 -160 4 0 5 134 389
151 432 10 27 15 16 90 -194 43 -123 79 -228 79 -233z"/>
<path d="M13660 5435 l0 -568 213 6 c171 4 227 9 290 26 127 34 202 76 287
161 115 114 163 233 163 405 1 167 -45 287 -146 382 -128 119 -215 143 -554
150 l-253 6 0 -568z m431 405 c77 -14 171 -63 214 -111 139 -154 134 -478 -8
-617 -69 -68 -122 -86 -265 -90 -67 -2 -134 -1 -147 2 l-25 6 0 410 0 410 89
0 c48 0 113 -5 142 -10z"/>
<path d="M15015 5988 c-3 -7 -4 -260 -3 -563 l3 -550 357 -3 356 -2 7 52 c3
29 9 66 12 81 l5 29 -266 -4 -266 -3 0 184 0 183 209 -7 209 -7 5 28 c3 16 9
48 12 72 l7 42 -221 0 -221 0 0 166 0 167 239 -8 239 -7 9 74 c5 40 7 76 5 81
-2 4 -158 7 -348 7 -266 0 -346 -3 -349 -12z"/>
<path d="M19325 5988 c-3 -7 -4 -260 -3 -563 l3 -550 329 -3 c182 -1 333 1
337 5 4 5 10 41 14 81 l7 74 -241 -4 -241 -3 -2 485 -3 485 -98 3 c-72 2 -99
-1 -102 -10z"/>
<path d="M21854 5986 c-8 -21 -141 -1100 -137 -1108 2 -5 44 -8 93 -8 76 0 89
3 93 18 3 9 22 200 43 424 21 224 40 405 43 403 2 -3 75 -190 162 -416 87
-226 160 -413 163 -416 3 -3 44 1 92 8 l87 13 22 50 c12 28 82 212 155 408 74
196 136 355 138 353 2 -2 23 -192 46 -422 l41 -418 98 -3 97 -3 0 29 c0 26
-113 986 -126 1065 l-6 38 -106 -3 -106 -3 -167 -444 c-91 -244 -168 -437
-172 -430 -3 8 -77 200 -166 427 -88 227 -165 422 -171 432 -10 18 -22 20
-111 20 -76 0 -101 -3 -105 -14z"/>
<path d="M23510 5435 l0 -568 233 6 c245 5 299 14 403 61 222 102 256 374 62
486 -29 16 -68 33 -85 36 -29 6 -47 24 -24 24 24 0 110 94 131 141 33 78 26
181 -16 241 -38 55 -81 83 -163 109 -56 18 -101 22 -303 26 l-238 6 0 -568z
m459 390 c46 -27 71 -64 81 -117 18 -92 -24 -164 -107 -187 -21 -6 -82 -11
-135 -11 l-98 0 0 171 0 171 113 -3 c89 -3 119 -8 146 -24z m61 -480 c42 -23
60 -40 78 -75 50 -100 12 -205 -87 -239 -19 -6 -95 -11 -172 -11 l-139 0 0
181 0 181 133 -4 c123 -3 136 -6 187 -33z"/>
<path d="M24730 5435 l0 -565 100 0 100 0 0 565 0 565 -100 0 -100 0 0 -565z"/>
<path d="M5105 5349 c-176 -18 -359 -98 -479 -210 -84 -78 -127 -140 -155
-221 -58 -169 -20 -309 98 -361 88 -39 186 -20 235 46 30 41 29 115 -3 158
l-24 32 39 -7 c22 -4 138 -55 258 -112 331 -159 518 -214 731 -214 297 0 621
127 909 356 l59 46 -174 58 c-96 32 -323 116 -504 188 -182 71 -380 146 -440
165 -207 67 -390 92 -550 76z m300 -118 c50 -11 135 -34 190 -51 147 -47 739
-284 716 -288 -36 -6 -276 39 -504 94 -408 98 -552 121 -697 110 -102 -8 -228
-37 -290 -66 l-45 -21 65 8 c36 4 128 8 205 7 166 -1 243 -16 587 -110 234
-64 451 -114 496 -114 15 0 21 -4 16 -11 -10 -17 -465 -5 -620 16 -104 14
-250 45 -319 69 -11 4 11 -9 49 -29 38 -20 121 -54 185 -75 211 -70 368 -93
658 -94 111 -1 196 -4 188 -9 -34 -18 -206 -69 -283 -82 -110 -19 -278 -19
-382 1 -120 22 -231 64 -460 174 -232 111 -287 130 -378 130 -87 0 -138 -17
-185 -62 l-40 -37 7 47 c17 126 124 251 278 326 51 25 129 54 173 65 108 26
270 27 390 2z"/>
<path d="M9820 5350 c-175 -16 -339 -66 -742 -226 -318 -126 -375 -148 -561
-209 l-159 -52 64 -50 c281 -222 560 -335 858 -349 238 -11 421 38 778 210
119 58 234 108 256 112 l39 7 -24 -32 c-32 -43 -33 -117 -3 -158 62 -86 223
-87 300 -1 77 84 81 219 12 368 -44 94 -175 222 -283 277 -171 88 -340 120
-535 103z m303 -124 c242 -62 426 -224 445 -393 l5 -47 -32 36 c-40 46 -103
68 -193 68 -90 0 -150 -21 -388 -135 -205 -99 -362 -157 -470 -174 -93 -15
-264 -13 -363 4 -86 15 -264 69 -282 86 -5 5 60 9 162 9 317 0 532 42 805 157
108 45 157 76 76 47 -168 -59 -400 -93 -679 -101 -231 -6 -290 4 -148 26 77
12 212 45 594 146 279 74 434 88 660 59 39 -5 39 -4 -17 21 -94 41 -189 58
-338 58 -160 1 -225 -10 -597 -98 -256 -61 -486 -105 -543 -105 -28 1 450 198
640 264 110 38 256 78 330 89 14 3 73 5 131 6 83 1 127 -4 202 -23z"/>
<path d="M7050 3714 c-171 -46 -270 -152 -270 -288 0 -76 24 -129 78 -178 74
-67 189 -84 279 -41 52 24 75 67 70 127 -6 65 -39 96 -102 96 -62 0 -95 -30
-102 -93 -6 -53 -17 -58 -57 -26 -58 45 -72 121 -36 195 39 79 144 124 289
124 47 0 106 -5 130 -11 59 -13 141 -49 141 -61 0 -6 -21 -33 -47 -62 -25 -28
-62 -85 -82 -126 -31 -66 -36 -84 -35 -150 0 -121 49 -206 146 -254 96 -48
205 -32 281 42 56 54 79 105 85 188 7 110 -36 216 -133 323 l-36 40 40 21
c110 56 315 66 419 21 129 -57 170 -199 80 -283 -44 -41 -63 -37 -64 13 -1 89
-107 131 -176 71 -27 -25 -31 -36 -31 -76 0 -89 69 -142 183 -140 148 3 244
95 244 234 0 188 -167 310 -424 310 -111 0 -186 -17 -287 -65 l-73 -34 -42 25
c-87 49 -189 74 -306 73 -60 0 -131 -7 -162 -15z m627 -368 c35 -68 42 -166
16 -216 -54 -104 -209 -107 -257 -6 -9 20 -16 60 -16 98 0 79 30 148 97 219
l48 51 43 -48 c24 -26 55 -70 69 -98z"/>
</g>
</svg>
